<svg width="846" height="462" viewBox="0 0 846 462" fill="none" xmlns="http://www.w3.org/2000/svg">
<path opacity="0.16" d="M486.111 248.594L439.471 216.572V291.056L486.111 323.078V248.594Z" fill="black" fill-opacity="0.12"/>
<path opacity="0.16" d="M486.111 248.662L846 117.599V192.082L486.111 323.076V248.662Z" fill="black" fill-opacity="0.26"/>
<path opacity="0.16" d="M677.186 302.035L630.701 270.12V344.358L677.186 376.273V302.035Z" fill="black" fill-opacity="0.12"/>
<path opacity="0.16" d="M677.186 302.109L766.688 269.823V344.061L677.186 376.278V302.109Z" fill="black" fill-opacity="0.26"/>
<path opacity="0.16" d="M46.86 309.7L0.375 277.785V352.023L46.86 383.938V309.7Z" fill="black" fill-opacity="0.12"/>
<path opacity="0.16" d="M46.8599 309.774L136.362 277.488V351.726L46.8599 383.943V309.774Z" fill="black" fill-opacity="0.26"/>
<path opacity="0.16" d="M540.701 32.2132L494.214 0.297729V74.5362L540.701 106.452V32.2132Z" fill="black" fill-opacity="0.12"/>
<path opacity="0.16" d="M540.702 32.2859L630.205 0V74.2384L540.702 106.455V32.2859Z" fill="black" fill-opacity="0.26"/>
<path opacity="0.16" d="M306.413 387.76L259.928 355.845V430.084L306.413 462V387.76Z" fill="black" fill-opacity="0.12"/>
<path opacity="0.16" d="M306.411 387.691L486.111 323.05V397.288L306.411 461.931V387.691Z" fill="black" fill-opacity="0.26"/>
<path opacity="0.16" d="M136.362 203.248L89.8754 171.331V245.571L136.362 277.486V203.248Z" fill="black" fill-opacity="0.12"/>
<path opacity="0.16" d="M136.361 203.18L316.061 138.538V212.776L136.361 277.418V203.18Z" fill="black" fill-opacity="0.26"/>
<path opacity="0.16" d="M362.551 170.412L316.065 138.497V212.736L362.551 244.652V170.412Z" fill="black" fill-opacity="0.12"/>
<path opacity="0.16" d="M362.55 170.343L542.25 105.702V179.942L362.55 244.583V170.343Z" fill="black" fill-opacity="0.26"/>
</svg>
